<svg xmlns="http://www.w3.org/2000/svg" viewBox="0 0 200 200" fill="none">
                    <defs>
                        <linearGradient id="moleBody" x1="0%" y1="0%" x2="0%" y2="100%">
                            <stop offset="0%" style="stop-color:#C68E68"></stop>
                            <stop offset="100%" style="stop-color:#A6704C"></stop>
                        </linearGradient>
                        <radialGradient id="moleBelly" cx="50%" cy="80%" r="50%">
                            <stop offset="0%" style="stop-color:#FFF3E0"></stop>
                            <stop offset="100%" style="stop-color:#FFE0B2"></stop>
                        </radialGradient>
                    </defs>
                    <path d="M55 160 C35 160, 35 100, 55 70 C70 45, 130 45, 145 70 C165 100, 165 160, 145 160 C125 165, 75 165, 55 160 Z" fill="url(#moleBody)"></path>
                    <ellipse cx="100" cy="135" rx="38" ry="32" fill="url(#moleBelly)"></ellipse>
                    <circle cx="55" cy="70" r="11" fill="#A6704C"></circle>
                    <circle cx="55" cy="70" r="6" fill="#FFCCBC"></circle>
                    <circle cx="145" cy="70" r="11" fill="#A6704C"></circle>
                    <circle cx="145" cy="70" r="6" fill="#FFCCBC"></circle>
                    <g transform="translate(0, 5)">
                        <ellipse cx="78" cy="90" rx="9" ry="11" fill="#3E2723"></ellipse>
                        <circle cx="81" cy="87" r="3.5" fill="#FFF"></circle>
                        <ellipse cx="122" cy="90" rx="9" ry="11" fill="#3E2723"></ellipse>
                        <circle cx="125" cy="87" r="3.5" fill="#FFF"></circle>
                        <ellipse cx="100" cy="98" rx="8" ry="6" fill="#FF8A80"></ellipse>
                        <path d="M92 110 Q100 115 108 110" stroke="#5D4037" stroke-width="3" stroke-linecap="round" fill="none"></path>
                        <rect x="97" y="112" width="6" height="5" rx="1.5" fill="white"></rect>
                        <ellipse cx="65" cy="105" rx="10" ry="7" fill="#FF80AB" opacity="0.4"></ellipse>
                        <ellipse cx="135" cy="105" rx="10" ry="7" fill="#FF80AB" opacity="0.4"></ellipse>
                    </g>
                    <ellipse cx="60" cy="130" rx="12" ry="10" fill="#C68E68"></ellipse>
                    <ellipse cx="140" cy="130" rx="12" ry="10" fill="#C68E68"></ellipse>
                </svg>