<svg xmlns="http://www.w3.org/2000/svg" viewBox="0 0 100 100" fill="none">
                    <defs>
                        <linearGradient id="spadeGrad" x1="20%" y1="0%" x2="80%" y2="100%">
                            <stop offset="0%" style="stop-color:#4A4A4A"></stop>
                            <stop offset="100%" style="stop-color:#000000"></stop>
                        </linearGradient>
                        <radialGradient id="spadeHighlight" cx="30%" cy="30%" r="60%">
                            <stop offset="0%" style="stop-color:rgba(255,255,255,0.4)"></stop>
                            <stop offset="100%" style="stop-color:rgba(255,255,255,0)"></stop>
                        </radialGradient>
                    </defs>
                    <!-- 主體 -->
                    <path d="M50 15 
                             C20 45, 5 60, 5 75 
                             C5 90, 25 100, 45 85 
                             L50 80 
                             L55 85 
                             C75 100, 95 90, 95 75 
                             C95 60, 80 45, 50 15 Z" fill="url(#spadeGrad)"></path>
                    
                    <!-- 底座 (柄) -->
                    <path d="M50 80 L35 95 Q50 100 65 95 Z" fill="url(#spadeGrad)"></path>
                    
                    <!-- 立體高光 (寶石感) -->
                    <path d="M50 20 
                             C30 45, 15 60, 15 70 
                             C15 80, 25 85, 35 80 
                             L50 70 
                             L65 80 
                             C75 85, 85 80, 85 70 
                             C85 60, 70 45, 50 20 Z" fill="url(#spadeHighlight)" opacity="0.8"></path>
                    
                    <!-- 邊緣反光 -->
                    <path d="M50 15 C20 45, 5 60, 5 75 C5 90, 25 100, 45 85" stroke="rgba(255,255,255,0.2)" stroke-width="2" fill="none"></path>
                </svg>