<svg viewBox="0 0 100 100" fill="none" xmlns="http://www.w3.org/2000/svg">
                    <defs>
                        <radialGradient id="appleSkin" cx="35" cy="35" r="55" gradientUnits="userSpaceOnUse">
                            <stop offset="0%" stop-color="#FF8A80"></stop> <!-- Soft Pinkish Red -->
                            <stop offset="60%" stop-color="#E53935"></stop> <!-- Vivid Red -->
                            <stop offset="100%" stop-color="#B71C1C"></stop> <!-- Deep Red Shadow -->
                        </radialGradient>
                        <filter id="softGlow" x="-20%" y="-20%" width="140%" height="140%">
                            <feGaussianBlur in="SourceGraphic" stdDeviation="2" result="blur"></feGaussianBlur>
                            <feComposite in="blur" in2="SourceGraphic" operator="over"></feComposite>
                        </filter>
                    </defs>
                    <!-- Shadow -->
                    <ellipse cx="50" cy="92" rx="25" ry="4" fill="#000" opacity="0.1"></ellipse>
                    <!-- Apple Body -->
                    <path d="M50 28C40 12 15 18 12 42C10 68 35 90 48 90C52 90 52 90 56 90C70 90 90 68 88 42C85 18 60 12 50 28Z" fill="url(#appleSkin)"></path>
                    <!-- Highlight (Glossy) -->
                    <path d="M22 38C22 30 30 25 40 25" stroke="white" stroke-width="3" stroke-linecap="round" opacity="0.4"></path>
                    <ellipse cx="28" cy="42" rx="4" ry="8" fill="white" opacity="0.25" transform="rotate(-20 28 42)"></ellipse>
                    <!-- Stem -->
                    <path d="M50 28C50 28 52 15 58 10" stroke="#795548" stroke-width="4" stroke-linecap="round"></path>
                    <!-- Leaf -->
                    <path d="M52 26C52 26 75 20 75 35C75 45 55 42 52 26Z" fill="#66BB6A" stroke="#43A047" stroke-width="1"></path>
                    <path d="M52 26C58 30 65 32 75 35" stroke="#A5D6A7" stroke-width="1"></path>
                </svg>