<svg viewBox="0 0 100 100" fill="none" xmlns="http://www.w3.org/2000/svg">
                    <defs>
                        <linearGradient id="bananaSkin" x1="0" y1="0" x2="100" y2="20">
                            <stop offset="0%" stop-color="#FFF59D"></stop>
                            <stop offset="50%" stop-color="#FBC02D"></stop>
                            <stop offset="100%" stop-color="#F57F17"></stop>
                        </linearGradient>
                    </defs>
                    <!-- Banana 3 (Back) -->
                    <path d="M45 15C45 15 50 60 70 70C80 75 90 60 90 60" stroke="#F9A825" stroke-width="20" stroke-linecap="round"></path>
                    <path d="M45 15C45 15 50 60 70 70C80 75 90 60 90 60" stroke="#FDD835" stroke-width="18" stroke-linecap="round"></path>
                    <!-- Banana 2 (Middle) -->
                    <path d="M35 18C35 18 35 65 60 80C75 90 92 70 92 70" stroke="#F9A825" stroke-width="22" stroke-linecap="round"></path>
                    <path d="M35 18C35 18 35 65 60 80C75 90 92 70 92 70" stroke="url(#bananaSkin)" stroke-width="20" stroke-linecap="round"></path>
                    <!-- Banana 1 (Front) -->
                    <path d="M25 22C25 22 20 70 50 85C70 95 90 75 90 75" stroke="#E65100" stroke-width="22" stroke-linecap="round"></path>
                    <path d="M25 22C25 22 20 70 50 85C70 95 90 75 90 75" stroke="url(#bananaSkin)" stroke-width="20" stroke-linecap="round"></path>
                    <!-- Ridges & Details -->
                    <path d="M22 28C22 28 18 65 45 80" stroke="white" stroke-width="1" fill="none" opacity="0.4"></path>
                    <path d="M35 18L30 10" stroke="#5D4037" stroke-width="6" stroke-linecap="round"></path>
                    <path d="M25 22L30 10" stroke="#5D4037" stroke-width="6" stroke-linecap="round"></path>
                    <path d="M45 15L30 10" stroke="#5D4037" stroke-width="6" stroke-linecap="round"></path>
                    <!-- Brown Spots -->
                    <circle cx="40" cy="70" r="1.5" fill="#5D4037" opacity="0.6"></circle>
                    <circle cx="55" cy="80" r="1" fill="#5D4037" opacity="0.6"></circle>
                    <circle cx="60" cy="50" r="1" fill="#5D4037" opacity="0.4"></circle>
                    <!-- Green tip on stem -->
                    <path d="M30 10L32 12" stroke="#689F38" stroke-width="6" stroke-linecap="round" opacity="0.8"></path>
                </svg>