<svg viewBox="0 0 100 100" fill="none" xmlns="http://www.w3.org/2000/svg">
                    <defs>
                        <radialGradient id="catWhite" cx="50" cy="50" r="50">
                            <stop offset="60%" stop-color="#FFFFFF"></stop>
                            <stop offset="100%" stop-color="#EEEEEE"></stop>
                        </radialGradient>
                    </defs>
                    <!-- Ears -->
                    <path d="M20 20L30 40H20Z" fill="#FAFAFA" stroke="#E0E0E0" stroke-width="2" stroke-linejoin="round"></path>
                    <path d="M80 20L70 40H80Z" fill="#FAFAFA" stroke="#E0E0E0" stroke-width="2" stroke-linejoin="round"></path>
                    <path d="M22 25L28 35" fill="#F48FB1"></path> <!-- Inner Ear -->
                    <path d="M78 25L72 35" fill="#F48FB1"></path> <!-- Inner Ear -->
                    <!-- Head (Fluffy outline simulated by curves) -->
                    <path d="M20 40C15 50 15 70 30 80C40 88 60 88 70 80C85 70 85 50 80 40C70 30 30 30 20 40Z" fill="url(#catWhite)"></path>
                    <path d="M20 40Q18 45 20 50Q18 55 20 60Q18 65 22 70" stroke="#E0E0E0" stroke-width="2" fill="none"></path> <!-- Fur side L -->
                    <path d="M80 40Q82 45 80 50Q82 55 80 60Q82 65 78 70" stroke="#E0E0E0" stroke-width="2" fill="none"></path> <!-- Fur side R -->
                    <!-- Eyes (Detailed) -->
                    <circle cx="35" cy="55" r="6" fill="#4DB6AC"></circle>
                    <ellipse cx="35" cy="55" rx="2" ry="5" fill="#004D40"></ellipse>
                    <circle cx="37" cy="53" r="2" fill="white"></circle>
                    
                    <circle cx="65" cy="55" r="6" fill="#4DB6AC"></circle>
                    <ellipse cx="65" cy="55" rx="2" ry="5" fill="#004D40"></ellipse>
                    <circle cx="67" cy="53" r="2" fill="white"></circle>
                    
                    <!-- Nose & Mouth -->
                    <path d="M48 65H52L50 68Z" fill="#F06292"></path>
                    <path d="M50 68Q45 72 42 70" stroke="#757575" stroke-width="1.5" fill="none"></path>
                    <path d="M50 68Q55 72 58 70" stroke="#757575" stroke-width="1.5" fill="none"></path>
                    <!-- Whiskers -->
                    <path d="M25 62L10 60" stroke="#BDBDBD" stroke-width="1"></path>
                    <path d="M25 65L10 66" stroke="#BDBDBD" stroke-width="1"></path>
                    <path d="M75 62L90 60" stroke="#BDBDBD" stroke-width="1"></path>
                    <path d="M75 65L90 66" stroke="#BDBDBD" stroke-width="1"></path>
                    <!-- Blush -->
                    <ellipse cx="30" cy="62" rx="4" ry="2" fill="#F8BBD0" opacity="0.6"></ellipse>
                    <ellipse cx="70" cy="62" rx="4" ry="2" fill="#F8BBD0" opacity="0.6"></ellipse>
                </svg>