<svg xmlns="http://www.w3.org/2000/svg" viewBox="0 0 80 80" fill="none">
  <defs>
    <linearGradient id="dogGradient" x1="0%" y1="0%" x2="100%" y2="100%">
      <stop offset="0%" style="stop-color:#D4A574"/>
      <stop offset="100%" style="stop-color:#A8815C"/>
    </linearGradient>
  </defs>
  <!-- 耳朵 -->
  <ellipse cx="18" cy="32" rx="10" ry="18" fill="url(#dogGradient)"/>
  <ellipse cx="62" cy="32" rx="10" ry="18" fill="url(#dogGradient)"/>
  <!-- 頭部 -->
  <ellipse cx="40" cy="42" rx="26" ry="24" fill="url(#dogGradient)"/>
  <!-- 臉部白色區域 -->
  <ellipse cx="40" cy="52" rx="14" ry="12" fill="#FFF7ED"/>
  <!-- 眼睛 -->
  <ellipse cx="30" cy="38" rx="5" ry="6" fill="#FFFFFF"/>
  <ellipse cx="50" cy="38" rx="5" ry="6" fill="#FFFFFF"/>
  <circle cx="31" cy="39" r="3" fill="#1F2937"/>
  <circle cx="51" cy="39" r="3" fill="#1F2937"/>
  <circle cx="32" cy="38" r="1" fill="#FFFFFF"/>
  <circle cx="52" cy="38" r="1" fill="#FFFFFF"/>
  <!-- 眉毛 -->
  <path d="M24 32Q30 30 34 32" stroke="#78350F" stroke-width="2" fill="none"/>
  <path d="M46 32Q50 30 56 32" stroke="#78350F" stroke-width="2" fill="none"/>
  <!-- 鼻子 -->
  <ellipse cx="40" cy="50" rx="6" ry="5" fill="#1F2937"/>
  <ellipse cx="40" cy="48" rx="2" ry="1.5" fill="#4B5563" opacity="0.5"/>
  <!-- 嘴巴 -->
  <path d="M40 55Q34 62 32 58" stroke="#78350F" stroke-width="2" fill="none"/>
  <path d="M40 55Q46 62 48 58" stroke="#78350F" stroke-width="2" fill="none"/>
  <!-- 舌頭 -->
  <ellipse cx="40" cy="62" rx="5" ry="6" fill="#F472B6"/>
  <path d="M40 58V65" stroke="#EC4899" stroke-width="1"/>
</svg>
