<svg viewBox="0 0 100 100" fill="none" xmlns="http://www.w3.org/2000/svg">
                    <defs>
                        <linearGradient id="dogFurBase" x1="0" y1="0" x2="0" y2="100">
                            <stop offset="0%" stop-color="#D7CCC8"></stop>
                            <stop offset="100%" stop-color="#A1887F"></stop>
                        </linearGradient>
                    </defs>
                    <!-- Ears (Dark Brown) -->
                    <path d="M25 35C20 35 10 50 15 65C18 70 30 60 35 50" fill="#5D4037"></path>
                    <path d="M75 35C80 35 90 50 85 65C82 70 70 60 65 50" fill="#5D4037"></path>
                    <!-- Face -->
                    <rect x="25" y="25" width="50" height="55" rx="20" fill="url(#dogFurBase)"></rect>
                    <!-- Eye Patch -->
                    <circle cx="38" cy="45" r="10" fill="#5D4037" opacity="0.2"></circle>
                    <!-- Eyes -->
                    <circle cx="38" cy="48" r="4" fill="#3E2723"></circle>
                    <circle cx="62" cy="48" r="4" fill="#3E2723"></circle>
                    <circle cx="40" cy="46" r="1.5" fill="white"></circle>
                    <circle cx="64" cy="46" r="1.5" fill="white"></circle>
                    <!-- Snout -->
                    <ellipse cx="50" cy="62" rx="16" ry="12" fill="#EFEBE9"></ellipse>
                    <path d="M44 56H56L50 62Z" fill="#3E2723" stroke="#3E2723" stroke-width="2" stroke-linejoin="round"></path>
                    <path d="M50 62V66" stroke="#3E2723" stroke-width="2"></path>
                    <path d="M50 66Q42 70 38 64" stroke="#3E2723" stroke-width="2" fill="none" stroke-linecap="round"></path>
                    <path d="M50 66Q58 70 62 64" stroke="#3E2723" stroke-width="2" fill="none" stroke-linecap="round"></path>
                    <!-- Tongue -->
                    <path d="M47 68Q50 78 53 68" fill="#FF8A80"></path>
                    <!-- Collar -->
                    <path d="M30 78H70" stroke="#F44336" stroke-width="6" stroke-linecap="round"></path>
                    <circle cx="50" cy="82" r="4" fill="#FFD700" stroke="#F57F17" stroke-width="1"></circle>
                </svg>