<svg viewBox="0 0 100 100" fill="none" xmlns="http://www.w3.org/2000/svg">
                    <defs>
                        <linearGradient id="petalYellow" x1="0" y1="0" x2="0" y2="100">
                            <stop offset="0%" stop-color="#FFEB3B"></stop>
                            <stop offset="100%" stop-color="#FBC02D"></stop>
                        </linearGradient>
                        <radialGradient id="seeds" cx="50" cy="50" r="15">
                            <stop offset="0%" stop-color="#795548"></stop>
                            <stop offset="100%" stop-color="#3E2723"></stop>
                        </radialGradient>
                    </defs>
                    <!-- Stem -->
                    <path d="M50 50Q50 75 50 95" stroke="#4CAF50" stroke-width="5" stroke-linecap="round"></path>
                    <path d="M50 75Q65 70 70 80Q65 85 50 78" fill="#66BB6A"></path>
                    <path d="M50 85Q35 80 30 90Q35 95 50 88" fill="#66BB6A"></path>
                    <!-- Back Petals -->
                    <g transform="translate(50,50) rotate(22.5)">
                        <path d="M0 0C-4 -20 -10 -30 0 -40C10 -30 4 -20 0 0" fill="#F9A825" stroke="#F57F17" stroke-width="0.5"></path>
                        <path d="M0 0C-4 -20 -10 -30 0 -40C10 -30 4 -20 0 0" fill="#F9A825" stroke="#F57F17" stroke-width="0.5" transform="rotate(45)"></path>
                        <path d="M0 0C-4 -20 -10 -30 0 -40C10 -30 4 -20 0 0" fill="#F9A825" stroke="#F57F17" stroke-width="0.5" transform="rotate(90)"></path>
                        <path d="M0 0C-4 -20 -10 -30 0 -40C10 -30 4 -20 0 0" fill="#F9A825" stroke="#F57F17" stroke-width="0.5" transform="rotate(135)"></path>
                        <path d="M0 0C-4 -20 -10 -30 0 -40C10 -30 4 -20 0 0" fill="#F9A825" stroke="#F57F17" stroke-width="0.5" transform="rotate(180)"></path>
                        <path d="M0 0C-4 -20 -10 -30 0 -40C10 -30 4 -20 0 0" fill="#F9A825" stroke="#F57F17" stroke-width="0.5" transform="rotate(225)"></path>
                        <path d="M0 0C-4 -20 -10 -30 0 -40C10 -30 4 -20 0 0" fill="#F9A825" stroke="#F57F17" stroke-width="0.5" transform="rotate(270)"></path>
                        <path d="M0 0C-4 -20 -10 -30 0 -40C10 -30 4 -20 0 0" fill="#F9A825" stroke="#F57F17" stroke-width="0.5" transform="rotate(315)"></path>
                    </g>
                    <!-- Front Petals -->
                    <g transform="translate(50,50)">
                        <path d="M0 0C-5 -25 -12 -35 0 -45C12 -35 5 -25 0 0" fill="url(#petalYellow)"></path>
                        <path d="M0 0C-5 -25 -12 -35 0 -45C12 -35 5 -25 0 0" fill="url(#petalYellow)" transform="rotate(45)"></path>
                        <path d="M0 0C-5 -25 -12 -35 0 -45C12 -35 5 -25 0 0" fill="url(#petalYellow)" transform="rotate(90)"></path>
                        <path d="M0 0C-5 -25 -12 -35 0 -45C12 -35 5 -25 0 0" fill="url(#petalYellow)" transform="rotate(135)"></path>
                        <path d="M0 0C-5 -25 -12 -35 0 -45C12 -35 5 -25 0 0" fill="url(#petalYellow)" transform="rotate(180)"></path>
                        <path d="M0 0C-5 -25 -12 -35 0 -45C12 -35 5 -25 0 0" fill="url(#petalYellow)" transform="rotate(225)"></path>
                        <path d="M0 0C-5 -25 -12 -35 0 -45C12 -35 5 -25 0 0" fill="url(#petalYellow)" transform="rotate(270)"></path>
                        <path d="M0 0C-5 -25 -12 -35 0 -45C12 -35 5 -25 0 0" fill="url(#petalYellow)" transform="rotate(315)"></path>
                    </g>
                    <!-- Center -->
                    <circle cx="50" cy="50" r="14" fill="url(#seeds)"></circle>
                    <circle cx="50" cy="50" r="14" fill="url(#grain)" opacity="0.3"></circle> <!-- Texture -->
                </svg>