<svg viewBox="0 0 100 100" fill="none" xmlns="http://www.w3.org/2000/svg">
                    <defs>
                        <linearGradient id="moonRealistic" x1="20" y1="20" x2="80" y2="80">
                            <stop offset="0%" stop-color="#FFFDE7"></stop>
                            <stop offset="50%" stop-color="#FFF9C4"></stop>
                            <stop offset="100%" stop-color="#FDD835"></stop>
                        </linearGradient>
                        <filter id="glow">
                            <feGaussianBlur stdDeviation="2.5" result="coloredBlur"></feGaussianBlur>
                            <feMerge>
                                <feMergeNode in="coloredBlur"></feMergeNode>
                                <feMergeNode in="SourceGraphic"></feMergeNode>
                            </feMerge>
                        </filter>
                    </defs>
                    <!-- Moon -->
                    <path d="M75 25C70 20 55 20 50 25C35 40 35 70 50 85C60 95 80 90 85 80C65 80 55 60 55 50C55 40 60 30 75 25Z" fill="url(#moonRealistic)" filter="url(#glow)"></path>
                    <!-- Craters -->
                    <ellipse cx="60" cy="50" rx="3" ry="4" fill="#FBC02D" opacity="0.3"></ellipse>
                    <ellipse cx="65" cy="70" rx="4" ry="3" fill="#FBC02D" opacity="0.3"></ellipse>
                    <ellipse cx="58" cy="35" rx="2" ry="2" fill="#FBC02D" opacity="0.3"></ellipse>
                    <!-- Cloud -->
                    <path d="M25 70C25 70 30 60 40 60C45 60 50 65 50 65C50 65 55 62 60 65C65 68 65 75 60 78H30C25 78 25 70 25 70Z" fill="white" opacity="0.8"></path>
                    <path d="M25 70C25 70 30 60 40 60C45 60 50 65 50 65C50 65 55 62 60 65C65 68 65 75 60 78H30C25 78 25 70 25 70Z" fill="url(#moonRealistic)" opacity="0.2"></path> <!-- Tint -->
                    <!-- Stars -->
                    <path d="M80 30L82 25L84 30L89 32L84 34L82 39L80 34L75 32L80 30Z" fill="#FFEE58"></path>
                    <circle cx="20" cy="40" r="1.5" fill="white"></circle>
                    <circle cx="30" cy="20" r="2" fill="#FFF59D"></circle>
                </svg>