<svg xmlns="http://www.w3.org/2000/svg" viewBox="0 0 80 80" fill="none">
  <defs>
    <linearGradient id="moonGradient" x1="0%" y1="0%" x2="100%" y2="100%">
      <stop offset="0%" style="stop-color:#FEF3C7"/>
      <stop offset="100%" style="stop-color:#FDE68A"/>
    </linearGradient>
  </defs>
  <!-- 月亮 -->
  <path d="M50 10C30 10 15 28 15 48C15 68 30 75 50 70C35 70 25 55 25 40C25 25 35 15 50 10Z" fill="url(#moonGradient)" stroke="#F59E0B" stroke-width="2"/>
  <!-- 隕石坑 -->
  <circle cx="32" cy="35" r="4" fill="#FCD34D" opacity="0.5"/>
  <circle cx="28" cy="50" r="3" fill="#FCD34D" opacity="0.5"/>
  <circle cx="40" cy="58" r="2" fill="#FCD34D" opacity="0.5"/>
  <!-- 星星 -->
  <g fill="#FDE68A">
    <path d="M60 20L62 16L64 20L60 18H64Z"/>
    <path d="M68 35L69 33L70 35L68 34H70Z"/>
    <path d="M58 50L59 48L60 50L58 49H60Z"/>
  </g>
</svg>
