<svg viewBox="0 0 100 100" fill="none" xmlns="http://www.w3.org/2000/svg">
                    <defs>
                        <radialGradient id="sunGold" cx="50" cy="50" r="30">
                            <stop offset="0%" stop-color="#FFFF8D"></stop>
                            <stop offset="40%" stop-color="#FFEA00"></stop>
                            <stop offset="100%" stop-color="#FF9100"></stop>
                        </radialGradient>
                    </defs>
                    <!-- Rays (Geometric) -->
                    <g fill="#FFAB00">
                        <polygon points="50,10 55,25 45,25"></polygon>
                        <polygon points="50,90 55,75 45,75"></polygon>
                        <polygon points="10,50 25,55 25,45"></polygon>
                        <polygon points="90,50 75,55 75,45"></polygon>
                        
                        <polygon points="22,22 35,30 30,35"></polygon>
                        <polygon points="78,78 65,70 70,65"></polygon>
                        <polygon points="22,78 35,70 30,65"></polygon>
                        <polygon points="78,22 65,30 70,35"></polygon>
                    </g>
                    <!-- Body -->
                    <circle cx="50" cy="50" r="22" fill="url(#sunGold)"></circle>
                    <circle cx="50" cy="50" r="25" stroke="#FFD740" stroke-width="2" opacity="0.5"></circle>
                    <!-- Shine -->
                    <ellipse cx="40" cy="40" rx="5" ry="3" fill="white" opacity="0.6" transform="rotate(-45 40 40)"></ellipse>
                </svg>