<svg viewBox="0 0 100 100" fill="none" xmlns="http://www.w3.org/2000/svg">
                    <defs>
                        <radialGradient id="leafLight" cx="30" cy="30" r="20">
                            <stop offset="0%" stop-color="#C8E6C9"></stop>
                            <stop offset="100%" stop-color="#66BB6A"></stop>
                        </radialGradient>
                        <radialGradient id="leafDark" cx="30" cy="30" r="20">
                            <stop offset="0%" stop-color="#81C784"></stop>
                            <stop offset="100%" stop-color="#388E3C"></stop>
                        </radialGradient>
                    </defs>
                    <!-- Trunk -->
                    <path d="M45 60C45 60 40 85 35 90H65C60 85 55 60 55 60" fill="#795548"></path>
                    <path d="M45 60H55V90H45V60Z" fill="#5D4037" opacity="0.3"></path> <!-- Shadow side -->
                    <path d="M50 65V80" stroke="#4E342E" stroke-width="1"></path> <!-- Bark detail -->
                    <!-- Leaves Clusters -->
                    <circle cx="50" cy="30" r="20" fill="url(#leafLight)"></circle>
                    <circle cx="30" cy="45" r="18" fill="url(#leafDark)"></circle>
                    <circle cx="70" cy="45" r="18" fill="url(#leafDark)"></circle>
                    <circle cx="42" cy="55" r="15" fill="#4CAF50"></circle>
                    <circle cx="58" cy="55" r="15" fill="#4CAF50"></circle>
                    <!-- Details -->
                    <path d="M50 20Q55 15 60 20" stroke="#E8F5E9" stroke-width="2" stroke-linecap="round" opacity="0.4"></path>
                    <path d="M25 40Q30 35 35 40" stroke="#E8F5E9" stroke-width="2" stroke-linecap="round" opacity="0.4"></path>
                    <path d="M65 40Q70 35 75 40" stroke="#E8F5E9" stroke-width="2" stroke-linecap="round" opacity="0.4"></path>
                </svg>