<svg xmlns="http://www.w3.org/2000/svg" viewBox="0 0 600 400" fill="none">
  <rect width="600" height="400" fill="#F8FAFC"/>
  <g fill="#E2E8F0">
    <circle cx="50" cy="50" r="3"/>
    <circle cx="150" cy="80" r="3"/>
    <circle cx="260" cy="60" r="3"/>
    <circle cx="360" cy="90" r="3"/>
    <circle cx="480" cy="70" r="3"/>
    <circle cx="560" cy="120" r="3"/>
    <circle cx="80" cy="170" r="3"/>
    <circle cx="200" cy="160" r="3"/>
    <circle cx="320" cy="150" r="3"/>
    <circle cx="420" cy="170" r="3"/>
    <circle cx="540" cy="180" r="3"/>
    <circle cx="120" cy="260" r="3"/>
    <circle cx="240" cy="250" r="3"/>
    <circle cx="360" cy="240" r="3"/>
    <circle cx="480" cy="260" r="3"/>
    <circle cx="100" cy="330" r="3"/>
    <circle cx="220" cy="320" r="3"/>
    <circle cx="340" cy="330" r="3"/>
    <circle cx="460" cy="320" r="3"/>
    <circle cx="560" cy="340" r="3"/>
  </g>
  <g stroke="#E2E8F0" stroke-width="1">
    <path d="M40 120H560"/>
    <path d="M60 220H540"/>
    <path d="M30 300H570"/>
  </g>
</svg>