<svg viewBox="0 0 100 100" fill="none" xmlns="http://www.w3.org/2000/svg">
                    <defs>
                        <radialGradient id="gemGreen" cx="30" cy="30" r="70">
                            <stop offset="0%" stop-color="#66BB6A"></stop>
                            <stop offset="60%" stop-color="#2E7D32"></stop>
                            <stop offset="100%" stop-color="#1B5E20"></stop>
                        </radialGradient>
                    </defs>
                    <!-- Shadow -->
                    <ellipse cx="50" cy="85" rx="32" ry="5" fill="#000" opacity="0.2" filter="blur(2px)"></ellipse>
                    <!-- Body (Hexagonal-ish) -->
                    <path d="M20 80L15 40L30 20H70L85 40L80 80H20Z" fill="url(#gemGreen)"></path>
                    <!-- Facets highlights -->
                    <path d="M15 40L30 20" stroke="white" stroke-width="1" opacity="0.3"></path>
                    <path d="M85 40L70 20" stroke="white" stroke-width="1" opacity="0.3"></path>
                    <path d="M30 20L70 20" stroke="white" stroke-width="1" opacity="0.5"></path>
                    <path d="M20 80L15 40" stroke="white" stroke-width="1" opacity="0.2"></path>
                    <!-- Gloss -->
                    <path d="M35 30L65 30L60 70H40L35 30Z" fill="white" opacity="0.1"></path>
                    <!-- Handle (Bronze) -->
                    <path d="M40 20V15C40 10 45 8 50 8C55 8 60 10 60 15V20" stroke="#8D6E63" stroke-width="6" stroke-linecap="round"></path>
                    <path d="M42 15C42 12 45 11 50 11" stroke="#D7CCC8" stroke-width="2" fill="none" opacity="0.5"></path>
                    <!-- Number -->
                    <text x="50" y="65" text-anchor="middle" font-family="'Noto Serif TC', serif" font-size="30" font-weight="bold" fill="#FFF" style="filter: drop-shadow(0px 2px 0px rgba(0,0,0,0.3));">2</text>
                </svg>